<svg viewBox="-16 -32 880 192" width="880" height="192" xmlns="http://www.w3.org/2000/svg"><desc>Generated with https://github.com/Platane/snk</desc><style>@keyframes c0{2.18%{fill:var(--c1)}2.2%,to{fill:var(--ce)}}@keyframes c1{59.86%{fill:var(--c2)}59.88%,to{fill:var(--ce)}}@keyframes c2{59.24%{fill:var(--c2)}59.26%,to{fill:var(--ce)}}@keyframes c3{92.78%{fill:var(--c4)}92.8%,to{fill:var(--ce)}}@keyframes c4{54.22%{fill:var(--c2)}54.24%,to{fill:var(--ce)}}@keyframes c5{66.45%{fill:var(--c3)}66.47%,to{fill:var(--ce)}}@keyframes c6{43.88%{fill:var(--c2)}43.9%,to{fill:var(--ce)}}@keyframes c7{43.56%{fill:var(--c2)}43.58%,to{fill:var(--ce)}}@keyframes c8{65.82%{fill:var(--c3)}65.84%,to{fill:var(--ce)}}@keyframes c9{92.15%{fill:var(--c4)}92.17%,to{fill:var(--ce)}}@keyframes ca{44.82%{fill:var(--c2)}44.84%,to{fill:var(--ce)}}@keyframes cb{42%{fill:var(--c2)}42.02%,to{fill:var(--ce)}}@keyframes cc{39.8%{fill:var(--c2)}39.82%,to{fill:var(--ce)}}@keyframes cd{40.12%{fill:var(--c2)}40.14%,to{fill:var(--ce)}}@keyframes ce{40.43%{fill:var(--c2)}40.45%,to{fill:var(--ce)}}@keyframes cf{40.74%{fill:var(--c2)}40.76%,to{fill:var(--ce)}}@keyframes cg{19.11%{fill:var(--c1)}19.13%,to{fill:var(--ce)}}@keyframes ch{46.38%{fill:var(--c2)}46.4%,to{fill:var(--ce)}}@keyframes ci{10.33%{fill:var(--c1)}10.35%,to{fill:var(--ce)}}@keyframes cj{11.28%{fill:var(--c1)}11.3%,to{fill:var(--ce)}}@keyframes ck{38.55%{fill:var(--c2)}38.57%,to{fill:var(--ce)}}@keyframes cl{38.86%{fill:var(--c2)}38.88%,to{fill:var(--ce)}}@keyframes cm{69.58%{fill:var(--c3)}69.6%,to{fill:var(--ce)}}@keyframes cn{37.92%{fill:var(--c2)}37.94%,to{fill:var(--ce)}}@keyframes co{88.7%{fill:var(--c4)}88.72%,to{fill:var(--ce)}}@keyframes cp{88.39%{fill:var(--c4)}88.41%,to{fill:var(--ce)}}@keyframes cq{88.08%{fill:var(--c4)}88.1%,to{fill:var(--ce)}}@keyframes cr{12.84%{fill:var(--c1)}12.86%,to{fill:var(--ce)}}@keyframes cs{37.29%{fill:var(--c2)}37.31%,to{fill:var(--ce)}}@keyframes ct{70.84%{fill:var(--c3)}70.86%,to{fill:var(--ce)}}@keyframes cu{36.98%{fill:var(--c2)}37%,to{fill:var(--ce)}}@keyframes cv{49.52%{fill:var(--c2)}49.54%,to{fill:var(--ce)}}@keyframes cw{15.04%{fill:var(--c1)}15.06%,to{fill:var(--ce)}}@keyframes cx{86.51%{fill:var(--c4)}86.53%,to{fill:var(--ce)}}@keyframes cy{34.79%{fill:var(--c2)}34.81%,to{fill:var(--ce)}}@keyframes cz{35.1%{fill:var(--c2)}35.12%,to{fill:var(--ce)}}@keyframes c10{35.41%{fill:var(--c2)}35.43%,to{fill:var(--ce)}}@keyframes c11{31.02%{fill:var(--c2)}31.04%,to{fill:var(--ce)}}@keyframes c12{27.58%{fill:var(--c1)}27.6%,to{fill:var(--ce)}}@keyframes c13{78.05%{fill:var(--c4)}78.07%,to{fill:var(--ce)}}@keyframes c14{76.79%{fill:var(--c3)}76.81%,to{fill:var(--ce)}}@keyframes c15{79.3%{fill:var(--c4)}79.32%,to{fill:var(--ce)}}@keyframes c16{29.46%{fill:var(--c1)}29.48%,to{fill:var(--ce)}}@keyframes u0{2.18%{transform:scale(0,1)}10.33%,2.2%{transform:scale(.13,1)}10.35%,11.28%{transform:scale(.25,1)}11.3%,12.84%{transform:scale(.38,1)}12.86%,15.04%{transform:scale(.5,1)}15.06%,19.11%{transform:scale(.63,1)}19.13%,27.58%{transform:scale(.75,1)}27.6%,29.46%{transform:scale(.88,1)}29.48%,to{transform:scale(1,1)}}@keyframes u1{31.02%{transform:scale(0,1)}31.04%,34.79%{transform:scale(.05,1)}34.81%,35.1%{transform:scale(.09,1)}35.12%,35.41%{transform:scale(.14,1)}35.43%,36.98%{transform:scale(.18,1)}37%,37.29%{transform:scale(.23,1)}37.31%,37.92%{transform:scale(.27,1)}37.94%,38.55%{transform:scale(.32,1)}38.57%,38.86%{transform:scale(.36,1)}38.88%,39.8%{transform:scale(.41,1)}39.82%,40.12%{transform:scale(.45,1)}40.14%,40.43%{transform:scale(.5,1)}40.45%,40.74%{transform:scale(.55,1)}40.76%,42%{transform:scale(.59,1)}42.02%,43.56%{transform:scale(.64,1)}43.58%,43.88%{transform:scale(.68,1)}43.9%,44.82%{transform:scale(.73,1)}44.84%,46.38%{transform:scale(.77,1)}46.4%,49.52%{transform:scale(.82,1)}49.54%,54.22%{transform:scale(.86,1)}54.24%,59.24%{transform:scale(.91,1)}59.26%,59.86%{transform:scale(.95,1)}59.88%,to{transform:scale(1,1)}}@keyframes u2{65.82%{transform:scale(0,1)}65.84%,66.45%{transform:scale(.2,1)}66.47%,69.58%{transform:scale(.4,1)}69.6%,70.84%{transform:scale(.6,1)}70.86%,76.79%{transform:scale(.8,1)}76.81%,to{transform:scale(1,1)}}@keyframes u3{78.05%{transform:scale(0,1)}78.07%,79.3%{transform:scale(.13,1)}79.32%,86.51%{transform:scale(.25,1)}86.53%,88.08%{transform:scale(.38,1)}88.1%,88.39%{transform:scale(.5,1)}88.41%,88.7%{transform:scale(.63,1)}88.72%,92.15%{transform:scale(.75,1)}92.17%,92.78%{transform:scale(.88,1)}92.8%,to{transform:scale(1,1)}}@keyframes s0{0%,99.69%{transform:translate(0,-16px)}.31%{transform:translate(0,0)}1.88%{transform:translate(80px,0)}2.19%{transform:translate(80px,16px)}2.51%{transform:translate(96px,16px)}2.82%,97.49%{transform:translate(96px,0)}7.21%{transform:translate(320px,0)}7.52%{transform:translate(320px,-16px)}9.4%{transform:translate(416px,-16px)}10.03%{transform:translate(416px,16px)}10.66%{transform:translate(448px,16px)}10.97%{transform:translate(448px,0)}11.29%,38.24%{transform:translate(464px,0)}11.6%{transform:translate(464px,-16px)}12.23%{transform:translate(496px,-16px)}12.85%{transform:translate(496px,16px)}14.11%{transform:translate(560px,16px)}15.05%{transform:translate(560px,64px)}15.36%{transform:translate(544px,64px)}15.67%{transform:translate(544px,80px)}16.61%{transform:translate(496px,80px)}17.24%{transform:translate(496px,112px)}17.87%{transform:translate(464px,112px)}18.18%,68.97%{transform:translate(464px,96px)}19.12%{transform:translate(416px,96px)}19.44%{transform:translate(416px,112px)}26.33%{transform:translate(768px,112px)}27.59%{transform:translate(768px,48px)}28.84%{transform:translate(832px,48px)}29.47%,79%{transform:translate(832px,16px)}29.78%{transform:translate(816px,16px)}30.09%{transform:translate(816px,0)}34.8%{transform:translate(576px,0)}35.11%{transform:translate(576px,16px)}35.42%{transform:translate(592px,16px)}35.74%{transform:translate(592px,0)}38.87%{transform:translate(464px,32px)}39.81%{transform:translate(416px,32px)}40.75%{transform:translate(416px,80px)}41.69%{transform:translate(368px,80px)}42.01%{transform:translate(368px,96px)}42.32%{transform:translate(384px,96px)}42.95%{transform:translate(384px,64px)}43.57%{transform:translate(352px,64px)}43.89%{transform:translate(352px,48px)}44.2%{transform:translate(368px,48px)}44.83%{transform:translate(368px,16px)}46.08%{transform:translate(432px,16px)}46.39%{transform:translate(432px,0)}48.28%{transform:translate(528px,0)}49.53%{transform:translate(528px,64px)}50.16%{transform:translate(496px,64px)}50.47%{transform:translate(496px,48px)}53.61%{transform:translate(336px,48px)}54.23%,66.14%{transform:translate(336px,80px)}54.55%{transform:translate(320px,80px)}55.49%{transform:translate(320px,32px)}59.25%{transform:translate(128px,32px)}59.56%{transform:translate(128px,16px)}59.87%{transform:translate(112px,16px)}60.19%{transform:translate(112px,32px)}64.89%{transform:translate(352px,32px)}65.83%{transform:translate(352px,80px)}66.46%{transform:translate(336px,96px)}69.91%{transform:translate(464px,48px)}76.49%{transform:translate(800px,48px)}76.8%{transform:translate(800px,64px)}77.12%{transform:translate(816px,64px)}77.74%{transform:translate(816px,32px)}78.06%{transform:translate(800px,32px)}78.37%{transform:translate(800px,16px)}79.31%{transform:translate(832px,0)}84.64%{transform:translate(560px,0)}86.52%{transform:translate(560px,96px)}88.09%{transform:translate(480px,96px)}89.97%{transform:translate(480px,0)}97.81%{transform:translate(96px,-16px)}}@keyframes s1{0%,99.69%{transform:translate(16px,-16px)}.31%{transform:translate(0,-16px)}.63%{transform:translate(0,0)}2.19%{transform:translate(80px,0)}2.51%{transform:translate(80px,16px)}2.82%{transform:translate(96px,16px)}3.13%,97.81%{transform:translate(96px,0)}7.52%{transform:translate(320px,0)}7.84%{transform:translate(320px,-16px)}9.72%{transform:translate(416px,-16px)}10.34%{transform:translate(416px,16px)}10.97%{transform:translate(448px,16px)}11.29%{transform:translate(448px,0)}11.6%,38.56%{transform:translate(464px,0)}11.91%{transform:translate(464px,-16px)}12.54%{transform:translate(496px,-16px)}13.17%{transform:translate(496px,16px)}14.42%{transform:translate(560px,16px)}15.36%{transform:translate(560px,64px)}15.67%{transform:translate(544px,64px)}15.99%{transform:translate(544px,80px)}16.93%{transform:translate(496px,80px)}17.55%{transform:translate(496px,112px)}18.18%{transform:translate(464px,112px)}18.5%,69.28%{transform:translate(464px,96px)}19.44%{transform:translate(416px,96px)}19.75%{transform:translate(416px,112px)}26.65%{transform:translate(768px,112px)}27.9%{transform:translate(768px,48px)}29.15%{transform:translate(832px,48px)}29.78%,79.31%{transform:translate(832px,16px)}30.09%{transform:translate(816px,16px)}30.41%{transform:translate(816px,0)}35.11%{transform:translate(576px,0)}35.42%{transform:translate(576px,16px)}35.74%{transform:translate(592px,16px)}36.05%{transform:translate(592px,0)}39.18%{transform:translate(464px,32px)}40.13%{transform:translate(416px,32px)}41.07%{transform:translate(416px,80px)}42.01%{transform:translate(368px,80px)}42.32%{transform:translate(368px,96px)}42.63%{transform:translate(384px,96px)}43.26%{transform:translate(384px,64px)}43.89%{transform:translate(352px,64px)}44.2%{transform:translate(352px,48px)}44.51%{transform:translate(368px,48px)}45.14%{transform:translate(368px,16px)}46.39%{transform:translate(432px,16px)}46.71%{transform:translate(432px,0)}48.59%{transform:translate(528px,0)}49.84%{transform:translate(528px,64px)}50.47%{transform:translate(496px,64px)}50.78%{transform:translate(496px,48px)}53.92%{transform:translate(336px,48px)}54.55%,66.46%{transform:translate(336px,80px)}54.86%{transform:translate(320px,80px)}55.8%{transform:translate(320px,32px)}59.56%{transform:translate(128px,32px)}59.87%{transform:translate(128px,16px)}60.19%{transform:translate(112px,16px)}60.5%{transform:translate(112px,32px)}65.2%{transform:translate(352px,32px)}66.14%{transform:translate(352px,80px)}66.77%{transform:translate(336px,96px)}70.22%{transform:translate(464px,48px)}76.8%{transform:translate(800px,48px)}77.12%{transform:translate(800px,64px)}77.43%{transform:translate(816px,64px)}78.06%{transform:translate(816px,32px)}78.37%{transform:translate(800px,32px)}78.68%{transform:translate(800px,16px)}79.62%{transform:translate(832px,0)}84.95%{transform:translate(560px,0)}86.83%{transform:translate(560px,96px)}88.4%{transform:translate(480px,96px)}90.28%{transform:translate(480px,0)}98.12%{transform:translate(96px,-16px)}}@keyframes s2{0%,99.69%{transform:translate(32px,-16px)}.63%{transform:translate(0,-16px)}.94%{transform:translate(0,0)}2.51%{transform:translate(80px,0)}2.82%{transform:translate(80px,16px)}3.13%{transform:translate(96px,16px)}3.45%,98.12%{transform:translate(96px,0)}7.84%{transform:translate(320px,0)}8.15%{transform:translate(320px,-16px)}10.03%{transform:translate(416px,-16px)}10.66%{transform:translate(416px,16px)}11.29%{transform:translate(448px,16px)}11.6%{transform:translate(448px,0)}11.91%,38.87%{transform:translate(464px,0)}12.23%{transform:translate(464px,-16px)}12.85%{transform:translate(496px,-16px)}13.48%{transform:translate(496px,16px)}14.73%{transform:translate(560px,16px)}15.67%{transform:translate(560px,64px)}15.99%{transform:translate(544px,64px)}16.3%{transform:translate(544px,80px)}17.24%{transform:translate(496px,80px)}17.87%{transform:translate(496px,112px)}18.5%{transform:translate(464px,112px)}18.81%,69.59%{transform:translate(464px,96px)}19.75%{transform:translate(416px,96px)}20.06%{transform:translate(416px,112px)}26.96%{transform:translate(768px,112px)}28.21%{transform:translate(768px,48px)}29.47%{transform:translate(832px,48px)}30.09%,79.62%{transform:translate(832px,16px)}30.41%{transform:translate(816px,16px)}30.72%{transform:translate(816px,0)}35.42%{transform:translate(576px,0)}35.74%{transform:translate(576px,16px)}36.05%{transform:translate(592px,16px)}36.36%{transform:translate(592px,0)}39.5%{transform:translate(464px,32px)}40.44%{transform:translate(416px,32px)}41.38%{transform:translate(416px,80px)}42.32%{transform:translate(368px,80px)}42.63%{transform:translate(368px,96px)}42.95%{transform:translate(384px,96px)}43.57%{transform:translate(384px,64px)}44.2%{transform:translate(352px,64px)}44.51%{transform:translate(352px,48px)}44.83%{transform:translate(368px,48px)}45.45%{transform:translate(368px,16px)}46.71%{transform:translate(432px,16px)}47.02%{transform:translate(432px,0)}48.9%{transform:translate(528px,0)}50.16%{transform:translate(528px,64px)}50.78%{transform:translate(496px,64px)}51.1%{transform:translate(496px,48px)}54.23%{transform:translate(336px,48px)}54.86%,66.77%{transform:translate(336px,80px)}55.17%{transform:translate(320px,80px)}56.11%{transform:translate(320px,32px)}59.87%{transform:translate(128px,32px)}60.19%{transform:translate(128px,16px)}60.5%{transform:translate(112px,16px)}60.82%{transform:translate(112px,32px)}65.52%{transform:translate(352px,32px)}66.46%{transform:translate(352px,80px)}67.08%{transform:translate(336px,96px)}70.53%{transform:translate(464px,48px)}77.12%{transform:translate(800px,48px)}77.43%{transform:translate(800px,64px)}77.74%{transform:translate(816px,64px)}78.37%{transform:translate(816px,32px)}78.68%{transform:translate(800px,32px)}79%{transform:translate(800px,16px)}79.94%{transform:translate(832px,0)}85.27%{transform:translate(560px,0)}87.15%{transform:translate(560px,96px)}88.71%{transform:translate(480px,96px)}90.6%{transform:translate(480px,0)}98.43%{transform:translate(96px,-16px)}}@keyframes s3{0%,99.69%{transform:translate(48px,-16px)}.94%{transform:translate(0,-16px)}1.25%{transform:translate(0,0)}2.82%{transform:translate(80px,0)}3.13%{transform:translate(80px,16px)}3.45%{transform:translate(96px,16px)}3.76%,98.43%{transform:translate(96px,0)}8.15%{transform:translate(320px,0)}8.46%{transform:translate(320px,-16px)}10.34%{transform:translate(416px,-16px)}10.97%{transform:translate(416px,16px)}11.6%{transform:translate(448px,16px)}11.91%{transform:translate(448px,0)}12.23%,39.18%{transform:translate(464px,0)}12.54%{transform:translate(464px,-16px)}13.17%{transform:translate(496px,-16px)}13.79%{transform:translate(496px,16px)}15.05%{transform:translate(560px,16px)}15.99%{transform:translate(560px,64px)}16.3%{transform:translate(544px,64px)}16.61%{transform:translate(544px,80px)}17.55%{transform:translate(496px,80px)}18.18%{transform:translate(496px,112px)}18.81%{transform:translate(464px,112px)}19.12%,69.91%{transform:translate(464px,96px)}20.06%{transform:translate(416px,96px)}20.38%{transform:translate(416px,112px)}27.27%{transform:translate(768px,112px)}28.53%{transform:translate(768px,48px)}29.78%{transform:translate(832px,48px)}30.41%,79.94%{transform:translate(832px,16px)}30.72%{transform:translate(816px,16px)}31.03%{transform:translate(816px,0)}35.74%{transform:translate(576px,0)}36.05%{transform:translate(576px,16px)}36.36%{transform:translate(592px,16px)}36.68%{transform:translate(592px,0)}39.81%{transform:translate(464px,32px)}40.75%{transform:translate(416px,32px)}41.69%{transform:translate(416px,80px)}42.63%{transform:translate(368px,80px)}42.95%{transform:translate(368px,96px)}43.26%{transform:translate(384px,96px)}43.89%{transform:translate(384px,64px)}44.51%{transform:translate(352px,64px)}44.83%{transform:translate(352px,48px)}45.14%{transform:translate(368px,48px)}45.77%{transform:translate(368px,16px)}47.02%{transform:translate(432px,16px)}47.34%{transform:translate(432px,0)}49.22%{transform:translate(528px,0)}50.47%{transform:translate(528px,64px)}51.1%{transform:translate(496px,64px)}51.41%{transform:translate(496px,48px)}54.55%{transform:translate(336px,48px)}55.17%,67.08%{transform:translate(336px,80px)}55.49%{transform:translate(320px,80px)}56.43%{transform:translate(320px,32px)}60.19%{transform:translate(128px,32px)}60.5%{transform:translate(128px,16px)}60.82%{transform:translate(112px,16px)}61.13%{transform:translate(112px,32px)}65.83%{transform:translate(352px,32px)}66.77%{transform:translate(352px,80px)}67.4%{transform:translate(336px,96px)}70.85%{transform:translate(464px,48px)}77.43%{transform:translate(800px,48px)}77.74%{transform:translate(800px,64px)}78.06%{transform:translate(816px,64px)}78.68%{transform:translate(816px,32px)}79%{transform:translate(800px,32px)}79.31%{transform:translate(800px,16px)}80.25%{transform:translate(832px,0)}85.58%{transform:translate(560px,0)}87.46%{transform:translate(560px,96px)}89.03%{transform:translate(480px,96px)}90.91%{transform:translate(480px,0)}98.75%{transform:translate(96px,-16px)}}:root{--cb:#1b1f230a;--cs:purple;--ce:#ebedf0;--c0:#ebedf0;--c1:#9be9a8;--c2:#40c463;--c3:#30a14e;--c4:#216e39}.c{shape-rendering:geometricPrecision;fill:var(--ce);stroke-width:1px;stroke:var(--cb);animation:none 31900ms linear infinite}.c.c0{fill:var(--c1);animation-name:c0}.c.c1,.c.c2{fill:var(--c2);animation-name:c1}.c.c2{animation-name:c2}.c.c3{fill:var(--c4);animation-name:c3}.c.c4{fill:var(--c2);animation-name:c4}.c.c5{fill:var(--c3);animation-name:c5}.c.c6,.c.c7{fill:var(--c2);animation-name:c6}.c.c7{animation-name:c7}.c.c8{fill:var(--c3);animation-name:c8}.c.c9{fill:var(--c4);animation-name:c9}.c.ca,.c.cb,.c.cc{fill:var(--c2);animation-name:ca}.c.cb,.c.cc{animation-name:cb}.c.cc{animation-name:cc}.c.cd,.c.ce,.c.cf{fill:var(--c2);animation-name:cd}.c.ce,.c.cf{animation-name:ce}.c.cf{animation-name:cf}.c.cg{fill:var(--c1);animation-name:cg}.c.ch{fill:var(--c2);animation-name:ch}.c.ci,.c.cj{fill:var(--c1);animation-name:ci}.c.cj{animation-name:cj}.c.ck,.c.cl{fill:var(--c2);animation-name:ck}.c.cl{animation-name:cl}.c.cm{fill:var(--c3);animation-name:cm}.c.cn{fill:var(--c2);animation-name:cn}.c.co,.c.cp,.c.cq{fill:var(--c4);animation-name:co}.c.cp,.c.cq{animation-name:cp}.c.cq{animation-name:cq}.c.cr{fill:var(--c1);animation-name:cr}.c.cs{fill:var(--c2);animation-name:cs}.c.ct{fill:var(--c3);animation-name:ct}.c.cu,.c.cv{fill:var(--c2);animation-name:cu}.c.cv{animation-name:cv}.c.cw{fill:var(--c1);animation-name:cw}.c.cx{fill:var(--c4);animation-name:cx}.c.cy{fill:var(--c2);animation-name:cy}.c.c10,.c.c11,.c.cz{fill:var(--c2);animation-name:cz}.c.c10,.c.c11{animation-name:c10}.c.c11{animation-name:c11}.c.c12{fill:var(--c1);animation-name:c12}.c.c13{fill:var(--c4);animation-name:c13}.c.c14{fill:var(--c3);animation-name:c14}.c.c15{fill:var(--c4);animation-name:c15}.c.c16{fill:var(--c1);animation-name:c16}.s,.u{animation:none linear 31900ms infinite}.u,.u.u0{transform-origin:0 0}.u{transform:scale(0,1)}.u.u0{fill:var(--c1);animation-name:u0}.u.u1{fill:var(--c2);animation-name:u1;transform-origin:157.8px 0}.u.u2{fill:var(--c3);animation-name:u2;transform-origin:591.6px 0}.u.u3{fill:var(--c4);animation-name:u3;transform-origin:690.2px 0}.s{shape-rendering:geometricPrecision;fill:var(--cs)}.s.s0{transform:translate(0,-16px);animation-name:s0}.s.s1{transform:translate(16px,-16px);animation-name:s1}.s.s2{transform:translate(32px,-16px);animation-name:s2}.s.s3{transform:translate(48px,-16px);animation-name:s3}</style><rect class="c" x="2" y="2" rx="2" ry="2" width="12" height="12"/><rect class="c" x="2" y="18" rx="2" ry="2" width="12" height="12"/><rect class="c" x="2" y="34" rx="2" ry="2" width="12" height="12"/><rect class="c" x="2" y="50" rx="2" ry="2" width="12" height="12"/><rect class="c" x="2" y="66" rx="2" ry="2" width="12" height="12"/><rect class="c" x="2" y="82" rx="2" ry="2" width="12" height="12"/><rect class="c" x="2" y="98" rx="2" ry="2" width="12" height="12"/><rect class="c" x="18" y="2" rx="2" ry="2" width="12" height="12"/><rect class="c" x="18" y="18" rx="2" ry="2" width="12" height="12"/><rect class="c" x="18" y="34" rx="2" ry="2" width="12" height="12"/><rect class="c" x="18" y="50" rx="2" ry="2" width="12" height="12"/><rect class="c" x="18" y="66" rx="2" ry="2" width="12" height="12"/><rect class="c" x="18" y="82" rx="2" ry="2" width="12" height="12"/><rect class="c" x="18" y="98" rx="2" ry="2" width="12" height="12"/><rect class="c" x="34" y="2" rx="2" ry="2" width="12" height="12"/><rect class="c" x="34" y="18" rx="2" ry="2" width="12" height="12"/><rect class="c" x="34" y="34" rx="2" ry="2" width="12" height="12"/><rect class="c" x="34" y="50" rx="2" ry="2" width="12" height="12"/><rect class="c" x="34" y="66" rx="2" ry="2" width="12" height="12"/><rect class="c" x="34" y="82" rx="2" ry="2" width="12" height="12"/><rect class="c" x="34" y="98" rx="2" ry="2" width="12" height="12"/><rect class="c" x="50" y="2" rx="2" ry="2" width="12" height="12"/><rect class="c" x="50" y="18" rx="2" ry="2" width="12" height="12"/><rect class="c" x="50" y="34" rx="2" ry="2" width="12" height="12"/><rect class="c" x="50" y="50" rx="2" ry="2" width="12" height="12"/><rect class="c" x="50" y="66" rx="2" ry="2" width="12" height="12"/><rect class="c" x="50" y="82" rx="2" ry="2" width="12" height="12"/><rect class="c" x="50" y="98" rx="2" ry="2" width="12" height="12"/><rect class="c" x="66" y="2" rx="2" ry="2" width="12" height="12"/><rect class="c" x="66" y="18" rx="2" ry="2" width="12" height="12"/><rect class="c" x="66" y="34" rx="2" ry="2" width="12" height="12"/><rect class="c" x="66" y="50" rx="2" ry="2" width="12" height="12"/><rect class="c" x="66" y="66" rx="2" ry="2" width="12" height="12"/><rect class="c" x="66" y="82" rx="2" ry="2" width="12" height="12"/><rect class="c" x="66" y="98" rx="2" ry="2" width="12" height="12"/><rect class="c" x="82" y="2" rx="2" ry="2" width="12" height="12"/><rect class="c c0" x="82" y="18" rx="2" ry="2" width="12" height="12"/><rect class="c" x="82" y="34" rx="2" ry="2" width="12" height="12"/><rect class="c" x="82" y="50" rx="2" ry="2" width="12" height="12"/><rect class="c" x="82" y="66" rx="2" ry="2" width="12" height="12"/><rect class="c" x="82" y="82" rx="2" ry="2" width="12" height="12"/><rect class="c" x="82" y="98" rx="2" ry="2" width="12" height="12"/><rect class="c" x="98" y="2" rx="2" ry="2" width="12" height="12"/><rect class="c" x="98" y="18" rx="2" ry="2" width="12" height="12"/><rect class="c" x="98" y="34" rx="2" ry="2" width="12" height="12"/><rect class="c" x="98" y="50" rx="2" ry="2" width="12" height="12"/><rect class="c" x="98" y="66" rx="2" ry="2" width="12" height="12"/><rect class="c" x="98" y="82" rx="2" ry="2" width="12" height="12"/><rect class="c" x="98" y="98" rx="2" ry="2" width="12" height="12"/><rect class="c" x="114" y="2" rx="2" ry="2" width="12" height="12"/><rect class="c c1" x="114" y="18" rx="2" ry="2" width="12" height="12"/><rect class="c" x="114" y="34" rx="2" ry="2" width="12" height="12"/><rect class="c" x="114" y="50" rx="2" ry="2" width="12" height="12"/><rect class="c" x="114" y="66" rx="2" ry="2" width="12" height="12"/><rect class="c" x="114" y="82" rx="2" ry="2" width="12" height="12"/><rect class="c" x="114" y="98" rx="2" ry="2" width="12" height="12"/><rect class="c" x="130" y="2" rx="2" ry="2" width="12" height="12"/><rect class="c" x="130" y="18" rx="2" ry="2" width="12" height="12"/><rect class="c c2" x="130" y="34" rx="2" ry="2" width="12" height="12"/><rect class="c" x="130" y="50" rx="2" ry="2" width="12" height="12"/><rect class="c" x="130" y="66" rx="2" ry="2" width="12" height="12"/><rect class="c" x="130" y="82" rx="2" ry="2" width="12" height="12"/><rect class="c" x="130" y="98" rx="2" ry="2" width="12" height="12"/><rect class="c" x="146" y="2" rx="2" ry="2" width="12" height="12"/><rect class="c" x="146" y="18" rx="2" ry="2" width="12" height="12"/><rect class="c" x="146" y="34" rx="2" ry="2" width="12" height="12"/><rect class="c" x="146" y="50" rx="2" ry="2" width="12" height="12"/><rect class="c" x="146" y="66" rx="2" ry="2" width="12" height="12"/><rect class="c" x="146" y="82" rx="2" ry="2" width="12" height="12"/><rect class="c" x="146" y="98" rx="2" ry="2" width="12" height="12"/><rect class="c" x="162" y="2" rx="2" ry="2" width="12" height="12"/><rect class="c" x="162" y="18" rx="2" ry="2" width="12" height="12"/><rect class="c" x="162" y="34" rx="2" ry="2" width="12" height="12"/><rect class="c" x="162" y="50" rx="2" ry="2" width="12" height="12"/><rect class="c" x="162" y="66" rx="2" ry="2" width="12" height="12"/><rect class="c" x="162" y="82" rx="2" ry="2" width="12" height="12"/><rect class="c" x="162" y="98" rx="2" ry="2" width="12" height="12"/><rect class="c" x="178" y="2" rx="2" ry="2" width="12" height="12"/><rect class="c" x="178" y="18" rx="2" ry="2" width="12" height="12"/><rect class="c" x="178" y="34" rx="2" ry="2" width="12" height="12"/><rect class="c" x="178" y="50" rx="2" ry="2" width="12" height="12"/><rect class="c" x="178" y="66" rx="2" ry="2" width="12" height="12"/><rect class="c" x="178" y="82" rx="2" ry="2" width="12" height="12"/><rect class="c" x="178" y="98" rx="2" ry="2" width="12" height="12"/><rect class="c" x="194" y="2" rx="2" ry="2" width="12" height="12"/><rect class="c" x="194" y="18" rx="2" ry="2" width="12" height="12"/><rect class="c" x="194" y="34" rx="2" ry="2" width="12" height="12"/><rect class="c" x="194" y="50" rx="2" ry="2" width="12" height="12"/><rect class="c" x="194" y="66" rx="2" ry="2" width="12" height="12"/><rect class="c" x="194" y="82" rx="2" ry="2" width="12" height="12"/><rect class="c" x="194" y="98" rx="2" ry="2" width="12" height="12"/><rect class="c" x="210" y="2" rx="2" ry="2" width="12" height="12"/><rect class="c" x="210" y="18" rx="2" ry="2" width="12" height="12"/><rect class="c" x="210" y="34" rx="2" ry="2" width="12" height="12"/><rect class="c" x="210" y="50" rx="2" ry="2" width="12" height="12"/><rect class="c" x="210" y="66" rx="2" ry="2" width="12" height="12"/><rect class="c" x="210" y="82" rx="2" ry="2" width="12" height="12"/><rect class="c" x="210" y="98" rx="2" ry="2" width="12" height="12"/><rect class="c" x="226" y="2" rx="2" ry="2" width="12" height="12"/><rect class="c" x="226" y="18" rx="2" ry="2" width="12" height="12"/><rect class="c" x="226" y="34" rx="2" ry="2" width="12" height="12"/><rect class="c" x="226" y="50" rx="2" ry="2" width="12" height="12"/><rect class="c" x="226" y="66" rx="2" ry="2" width="12" height="12"/><rect class="c" x="226" y="82" rx="2" ry="2" width="12" height="12"/><rect class="c" x="226" y="98" rx="2" ry="2" width="12" height="12"/><rect class="c" x="242" y="2" rx="2" ry="2" width="12" height="12"/><rect class="c" x="242" y="18" rx="2" ry="2" width="12" height="12"/><rect class="c" x="242" y="34" rx="2" ry="2" width="12" height="12"/><rect class="c" x="242" y="50" rx="2" ry="2" width="12" height="12"/><rect class="c" x="242" y="66" rx="2" ry="2" width="12" height="12"/><rect class="c" x="242" y="82" rx="2" ry="2" width="12" height="12"/><rect class="c" x="242" y="98" rx="2" ry="2" width="12" height="12"/><rect class="c" x="258" y="2" rx="2" ry="2" width="12" height="12"/><rect class="c" x="258" y="18" rx="2" ry="2" width="12" height="12"/><rect class="c" x="258" y="34" rx="2" ry="2" width="12" height="12"/><rect class="c" x="258" y="50" rx="2" ry="2" width="12" height="12"/><rect class="c" x="258" y="66" rx="2" ry="2" width="12" height="12"/><rect class="c" x="258" y="82" rx="2" ry="2" width="12" height="12"/><rect class="c" x="258" y="98" rx="2" ry="2" width="12" height="12"/><rect class="c" x="274" y="2" rx="2" ry="2" width="12" height="12"/><rect class="c" x="274" y="18" rx="2" ry="2" width="12" height="12"/><rect class="c" x="274" y="34" rx="2" ry="2" width="12" height="12"/><rect class="c" x="274" y="50" rx="2" ry="2" width="12" height="12"/><rect class="c" x="274" y="66" rx="2" ry="2" width="12" height="12"/><rect class="c" x="274" y="82" rx="2" ry="2" width="12" height="12"/><rect class="c" x="274" y="98" rx="2" ry="2" width="12" height="12"/><rect class="c" x="290" y="2" rx="2" ry="2" width="12" height="12"/><rect class="c" x="290" y="18" rx="2" ry="2" width="12" height="12"/><rect class="c" x="290" y="34" rx="2" ry="2" width="12" height="12"/><rect class="c" x="290" y="50" rx="2" ry="2" width="12" height="12"/><rect class="c" x="290" y="66" rx="2" ry="2" width="12" height="12"/><rect class="c" x="290" y="82" rx="2" ry="2" width="12" height="12"/><rect class="c" x="290" y="98" rx="2" ry="2" width="12" height="12"/><rect class="c" x="306" y="2" rx="2" ry="2" width="12" height="12"/><rect class="c" x="306" y="18" rx="2" ry="2" width="12" height="12"/><rect class="c" x="306" y="34" rx="2" ry="2" width="12" height="12"/><rect class="c" x="306" y="50" rx="2" ry="2" width="12" height="12"/><rect class="c" x="306" y="66" rx="2" ry="2" width="12" height="12"/><rect class="c" x="306" y="82" rx="2" ry="2" width="12" height="12"/><rect class="c" x="306" y="98" rx="2" ry="2" width="12" height="12"/><rect class="c" x="322" y="2" rx="2" ry="2" width="12" height="12"/><rect class="c" x="322" y="18" rx="2" ry="2" width="12" height="12"/><rect class="c" x="322" y="34" rx="2" ry="2" width="12" height="12"/><rect class="c" x="322" y="50" rx="2" ry="2" width="12" height="12"/><rect class="c" x="322" y="66" rx="2" ry="2" width="12" height="12"/><rect class="c" x="322" y="82" rx="2" ry="2" width="12" height="12"/><rect class="c" x="322" y="98" rx="2" ry="2" width="12" height="12"/><rect class="c c3" x="338" y="2" rx="2" ry="2" width="12" height="12"/><rect class="c" x="338" y="18" rx="2" ry="2" width="12" height="12"/><rect class="c" x="338" y="34" rx="2" ry="2" width="12" height="12"/><rect class="c" x="338" y="50" rx="2" ry="2" width="12" height="12"/><rect class="c" x="338" y="66" rx="2" ry="2" width="12" height="12"/><rect class="c c4" x="338" y="82" rx="2" ry="2" width="12" height="12"/><rect class="c c5" x="338" y="98" rx="2" ry="2" width="12" height="12"/><rect class="c" x="354" y="2" rx="2" ry="2" width="12" height="12"/><rect class="c" x="354" y="18" rx="2" ry="2" width="12" height="12"/><rect class="c" x="354" y="34" rx="2" ry="2" width="12" height="12"/><rect class="c c6" x="354" y="50" rx="2" ry="2" width="12" height="12"/><rect class="c c7" x="354" y="66" rx="2" ry="2" width="12" height="12"/><rect class="c c8" x="354" y="82" rx="2" ry="2" width="12" height="12"/><rect class="c" x="354" y="98" rx="2" ry="2" width="12" height="12"/><rect class="c c9" x="370" y="2" rx="2" ry="2" width="12" height="12"/><rect class="c ca" x="370" y="18" rx="2" ry="2" width="12" height="12"/><rect class="c" x="370" y="34" rx="2" ry="2" width="12" height="12"/><rect class="c" x="370" y="50" rx="2" ry="2" width="12" height="12"/><rect class="c" x="370" y="66" rx="2" ry="2" width="12" height="12"/><rect class="c" x="370" y="82" rx="2" ry="2" width="12" height="12"/><rect class="c cb" x="370" y="98" rx="2" ry="2" width="12" height="12"/><rect class="c" x="386" y="2" rx="2" ry="2" width="12" height="12"/><rect class="c" x="386" y="18" rx="2" ry="2" width="12" height="12"/><rect class="c" x="386" y="34" rx="2" ry="2" width="12" height="12"/><rect class="c" x="386" y="50" rx="2" ry="2" width="12" height="12"/><rect class="c" x="386" y="66" rx="2" ry="2" width="12" height="12"/><rect class="c" x="386" y="82" rx="2" ry="2" width="12" height="12"/><rect class="c" x="386" y="98" rx="2" ry="2" width="12" height="12"/><rect class="c" x="402" y="2" rx="2" ry="2" width="12" height="12"/><rect class="c" x="402" y="18" rx="2" ry="2" width="12" height="12"/><rect class="c" x="402" y="34" rx="2" ry="2" width="12" height="12"/><rect class="c" x="402" y="50" rx="2" ry="2" width="12" height="12"/><rect class="c" x="402" y="66" rx="2" ry="2" width="12" height="12"/><rect class="c" x="402" y="82" rx="2" ry="2" width="12" height="12"/><rect class="c" x="402" y="98" rx="2" ry="2" width="12" height="12"/><rect class="c" x="418" y="2" rx="2" ry="2" width="12" height="12"/><rect class="c" x="418" y="18" rx="2" ry="2" width="12" height="12"/><rect class="c cc" x="418" y="34" rx="2" ry="2" width="12" height="12"/><rect class="c cd" x="418" y="50" rx="2" ry="2" width="12" height="12"/><rect class="c ce" x="418" y="66" rx="2" ry="2" width="12" height="12"/><rect class="c cf" x="418" y="82" rx="2" ry="2" width="12" height="12"/><rect class="c cg" x="418" y="98" rx="2" ry="2" width="12" height="12"/><rect class="c ch" x="434" y="2" rx="2" ry="2" width="12" height="12"/><rect class="c ci" x="434" y="18" rx="2" ry="2" width="12" height="12"/><rect class="c" x="434" y="34" rx="2" ry="2" width="12" height="12"/><rect class="c" x="434" y="50" rx="2" ry="2" width="12" height="12"/><rect class="c" x="434" y="66" rx="2" ry="2" width="12" height="12"/><rect class="c" x="434" y="82" rx="2" ry="2" width="12" height="12"/><rect class="c" x="434" y="98" rx="2" ry="2" width="12" height="12"/><rect class="c" x="450" y="2" rx="2" ry="2" width="12" height="12"/><rect class="c" x="450" y="18" rx="2" ry="2" width="12" height="12"/><rect class="c" x="450" y="34" rx="2" ry="2" width="12" height="12"/><rect class="c" x="450" y="50" rx="2" ry="2" width="12" height="12"/><rect class="c" x="450" y="66" rx="2" ry="2" width="12" height="12"/><rect class="c" x="450" y="82" rx="2" ry="2" width="12" height="12"/><rect class="c" x="450" y="98" rx="2" ry="2" width="12" height="12"/><rect class="c cj" x="466" y="2" rx="2" ry="2" width="12" height="12"/><rect class="c ck" x="466" y="18" rx="2" ry="2" width="12" height="12"/><rect class="c cl" x="466" y="34" rx="2" ry="2" width="12" height="12"/><rect class="c" x="466" y="50" rx="2" ry="2" width="12" height="12"/><rect class="c cm" x="466" y="66" rx="2" ry="2" width="12" height="12"/><rect class="c" x="466" y="82" rx="2" ry="2" width="12" height="12"/><rect class="c" x="466" y="98" rx="2" ry="2" width="12" height="12"/><rect class="c cn" x="482" y="2" rx="2" ry="2" width="12" height="12"/><rect class="c" x="482" y="18" rx="2" ry="2" width="12" height="12"/><rect class="c" x="482" y="34" rx="2" ry="2" width="12" height="12"/><rect class="c" x="482" y="50" rx="2" ry="2" width="12" height="12"/><rect class="c co" x="482" y="66" rx="2" ry="2" width="12" height="12"/><rect class="c cp" x="482" y="82" rx="2" ry="2" width="12" height="12"/><rect class="c cq" x="482" y="98" rx="2" ry="2" width="12" height="12"/><rect class="c" x="498" y="2" rx="2" ry="2" width="12" height="12"/><rect class="c cr" x="498" y="18" rx="2" ry="2" width="12" height="12"/><rect class="c" x="498" y="34" rx="2" ry="2" width="12" height="12"/><rect class="c" x="498" y="50" rx="2" ry="2" width="12" height="12"/><rect class="c" x="498" y="66" rx="2" ry="2" width="12" height="12"/><rect class="c" x="498" y="82" rx="2" ry="2" width="12" height="12"/><rect class="c" x="498" y="98" rx="2" ry="2" width="12" height="12"/><rect class="c cs" x="514" y="2" rx="2" ry="2" width="12" height="12"/><rect class="c" x="514" y="18" rx="2" ry="2" width="12" height="12"/><rect class="c" x="514" y="34" rx="2" ry="2" width="12" height="12"/><rect class="c ct" x="514" y="50" rx="2" ry="2" width="12" height="12"/><rect class="c" x="514" y="66" rx="2" ry="2" width="12" height="12"/><rect class="c" x="514" y="82" rx="2" ry="2" width="12" height="12"/><rect class="c" x="514" y="98" rx="2" ry="2" width="12" height="12"/><rect class="c cu" x="530" y="2" rx="2" ry="2" width="12" height="12"/><rect class="c" x="530" y="18" rx="2" ry="2" width="12" height="12"/><rect class="c" x="530" y="34" rx="2" ry="2" width="12" height="12"/><rect class="c" x="530" y="50" rx="2" ry="2" width="12" height="12"/><rect class="c cv" x="530" y="66" rx="2" ry="2" width="12" height="12"/><rect class="c" x="530" y="82" rx="2" ry="2" width="12" height="12"/><rect class="c" x="530" y="98" rx="2" ry="2" width="12" height="12"/><rect class="c" x="546" y="2" rx="2" ry="2" width="12" height="12"/><rect class="c" x="546" y="18" rx="2" ry="2" width="12" height="12"/><rect class="c" x="546" y="34" rx="2" ry="2" width="12" height="12"/><rect class="c" x="546" y="50" rx="2" ry="2" width="12" height="12"/><rect class="c" x="546" y="66" rx="2" ry="2" width="12" height="12"/><rect class="c" x="546" y="82" rx="2" ry="2" width="12" height="12"/><rect class="c" x="546" y="98" rx="2" ry="2" width="12" height="12"/><rect class="c" x="562" y="2" rx="2" ry="2" width="12" height="12"/><rect class="c" x="562" y="18" rx="2" ry="2" width="12" height="12"/><rect class="c" x="562" y="34" rx="2" ry="2" width="12" height="12"/><rect class="c" x="562" y="50" rx="2" ry="2" width="12" height="12"/><rect class="c cw" x="562" y="66" rx="2" ry="2" width="12" height="12"/><rect class="c" x="562" y="82" rx="2" ry="2" width="12" height="12"/><rect class="c cx" x="562" y="98" rx="2" ry="2" width="12" height="12"/><rect class="c cy" x="578" y="2" rx="2" ry="2" width="12" height="12"/><rect class="c cz" x="578" y="18" rx="2" ry="2" width="12" height="12"/><rect class="c" x="578" y="34" rx="2" ry="2" width="12" height="12"/><rect class="c" x="578" y="50" rx="2" ry="2" width="12" height="12"/><rect class="c" x="578" y="66" rx="2" ry="2" width="12" height="12"/><rect class="c" x="578" y="82" rx="2" ry="2" width="12" height="12"/><rect class="c" x="578" y="98" rx="2" ry="2" width="12" height="12"/><rect class="c" x="594" y="2" rx="2" ry="2" width="12" height="12"/><rect class="c c10" x="594" y="18" rx="2" ry="2" width="12" height="12"/><rect class="c" x="594" y="34" rx="2" ry="2" width="12" height="12"/><rect class="c" x="594" y="50" rx="2" ry="2" width="12" height="12"/><rect class="c" x="594" y="66" rx="2" ry="2" width="12" height="12"/><rect class="c" x="594" y="82" rx="2" ry="2" width="12" height="12"/><rect class="c" x="594" y="98" rx="2" ry="2" width="12" height="12"/><rect class="c" x="610" y="2" rx="2" ry="2" width="12" height="12"/><rect class="c" x="610" y="18" rx="2" ry="2" width="12" height="12"/><rect class="c" x="610" y="34" rx="2" ry="2" width="12" height="12"/><rect class="c" x="610" y="50" rx="2" ry="2" width="12" height="12"/><rect class="c" x="610" y="66" rx="2" ry="2" width="12" height="12"/><rect class="c" x="610" y="82" rx="2" ry="2" width="12" height="12"/><rect class="c" x="610" y="98" rx="2" ry="2" width="12" height="12"/><rect class="c" x="626" y="2" rx="2" ry="2" width="12" height="12"/><rect class="c" x="626" y="18" rx="2" ry="2" width="12" height="12"/><rect class="c" x="626" y="34" rx="2" ry="2" width="12" height="12"/><rect class="c" x="626" y="50" rx="2" ry="2" width="12" height="12"/><rect class="c" x="626" y="66" rx="2" ry="2" width="12" height="12"/><rect class="c" x="626" y="82" rx="2" ry="2" width="12" height="12"/><rect class="c" x="626" y="98" rx="2" ry="2" width="12" height="12"/><rect class="c" x="642" y="2" rx="2" ry="2" width="12" height="12"/><rect class="c" x="642" y="18" rx="2" ry="2" width="12" height="12"/><rect class="c" x="642" y="34" rx="2" ry="2" width="12" height="12"/><rect class="c" x="642" y="50" rx="2" ry="2" width="12" height="12"/><rect class="c" x="642" y="66" rx="2" ry="2" width="12" height="12"/><rect class="c" x="642" y="82" rx="2" ry="2" width="12" height="12"/><rect class="c" x="642" y="98" rx="2" ry="2" width="12" height="12"/><rect class="c" x="658" y="2" rx="2" ry="2" width="12" height="12"/><rect class="c" x="658" y="18" rx="2" ry="2" width="12" height="12"/><rect class="c" x="658" y="34" rx="2" ry="2" width="12" height="12"/><rect class="c" x="658" y="50" rx="2" ry="2" width="12" height="12"/><rect class="c" x="658" y="66" rx="2" ry="2" width="12" height="12"/><rect class="c" x="658" y="82" rx="2" ry="2" width="12" height="12"/><rect class="c" x="658" y="98" rx="2" ry="2" width="12" height="12"/><rect class="c" x="674" y="2" rx="2" ry="2" width="12" height="12"/><rect class="c" x="674" y="18" rx="2" ry="2" width="12" height="12"/><rect class="c" x="674" y="34" rx="2" ry="2" width="12" height="12"/><rect class="c" x="674" y="50" rx="2" ry="2" width="12" height="12"/><rect class="c" x="674" y="66" rx="2" ry="2" width="12" height="12"/><rect class="c" x="674" y="82" rx="2" ry="2" width="12" height="12"/><rect class="c" x="674" y="98" rx="2" ry="2" width="12" height="12"/><rect class="c" x="690" y="2" rx="2" ry="2" width="12" height="12"/><rect class="c" x="690" y="18" rx="2" ry="2" width="12" height="12"/><rect class="c" x="690" y="34" rx="2" ry="2" width="12" height="12"/><rect class="c" x="690" y="50" rx="2" ry="2" width="12" height="12"/><rect class="c" x="690" y="66" rx="2" ry="2" width="12" height="12"/><rect class="c" x="690" y="82" rx="2" ry="2" width="12" height="12"/><rect class="c" x="690" y="98" rx="2" ry="2" width="12" height="12"/><rect class="c" x="706" y="2" rx="2" ry="2" width="12" height="12"/><rect class="c" x="706" y="18" rx="2" ry="2" width="12" height="12"/><rect class="c" x="706" y="34" rx="2" ry="2" width="12" height="12"/><rect class="c" x="706" y="50" rx="2" ry="2" width="12" height="12"/><rect class="c" x="706" y="66" rx="2" ry="2" width="12" height="12"/><rect class="c" x="706" y="82" rx="2" ry="2" width="12" height="12"/><rect class="c" x="706" y="98" rx="2" ry="2" width="12" height="12"/><rect class="c" x="722" y="2" rx="2" ry="2" width="12" height="12"/><rect class="c" x="722" y="18" rx="2" ry="2" width="12" height="12"/><rect class="c" x="722" y="34" rx="2" ry="2" width="12" height="12"/><rect class="c" x="722" y="50" rx="2" ry="2" width="12" height="12"/><rect class="c" x="722" y="66" rx="2" ry="2" width="12" height="12"/><rect class="c" x="722" y="82" rx="2" ry="2" width="12" height="12"/><rect class="c" x="722" y="98" rx="2" ry="2" width="12" height="12"/><rect class="c" x="738" y="2" rx="2" ry="2" width="12" height="12"/><rect class="c" x="738" y="18" rx="2" ry="2" width="12" height="12"/><rect class="c" x="738" y="34" rx="2" ry="2" width="12" height="12"/><rect class="c" x="738" y="50" rx="2" ry="2" width="12" height="12"/><rect class="c" x="738" y="66" rx="2" ry="2" width="12" height="12"/><rect class="c" x="738" y="82" rx="2" ry="2" width="12" height="12"/><rect class="c" x="738" y="98" rx="2" ry="2" width="12" height="12"/><rect class="c" x="754" y="2" rx="2" ry="2" width="12" height="12"/><rect class="c" x="754" y="18" rx="2" ry="2" width="12" height="12"/><rect class="c" x="754" y="34" rx="2" ry="2" width="12" height="12"/><rect class="c" x="754" y="50" rx="2" ry="2" width="12" height="12"/><rect class="c" x="754" y="66" rx="2" ry="2" width="12" height="12"/><rect class="c" x="754" y="82" rx="2" ry="2" width="12" height="12"/><rect class="c" x="754" y="98" rx="2" ry="2" width="12" height="12"/><rect class="c c11" x="770" y="2" rx="2" ry="2" width="12" height="12"/><rect class="c" x="770" y="18" rx="2" ry="2" width="12" height="12"/><rect class="c" x="770" y="34" rx="2" ry="2" width="12" height="12"/><rect class="c c12" x="770" y="50" rx="2" ry="2" width="12" height="12"/><rect class="c" x="770" y="66" rx="2" ry="2" width="12" height="12"/><rect class="c" x="770" y="82" rx="2" ry="2" width="12" height="12"/><rect class="c" x="770" y="98" rx="2" ry="2" width="12" height="12"/><rect class="c" x="786" y="2" rx="2" ry="2" width="12" height="12"/><rect class="c" x="786" y="18" rx="2" ry="2" width="12" height="12"/><rect class="c" x="786" y="34" rx="2" ry="2" width="12" height="12"/><rect class="c" x="786" y="50" rx="2" ry="2" width="12" height="12"/><rect class="c" x="786" y="66" rx="2" ry="2" width="12" height="12"/><rect class="c" x="786" y="82" rx="2" ry="2" width="12" height="12"/><rect class="c" x="786" y="98" rx="2" ry="2" width="12" height="12"/><rect class="c" x="802" y="2" rx="2" ry="2" width="12" height="12"/><rect class="c" x="802" y="18" rx="2" ry="2" width="12" height="12"/><rect class="c c13" x="802" y="34" rx="2" ry="2" width="12" height="12"/><rect class="c" x="802" y="50" rx="2" ry="2" width="12" height="12"/><rect class="c c14" x="802" y="66" rx="2" ry="2" width="12" height="12"/><rect class="c" x="802" y="82" rx="2" ry="2" width="12" height="12"/><rect class="c" x="802" y="98" rx="2" ry="2" width="12" height="12"/><rect class="c" x="818" y="2" rx="2" ry="2" width="12" height="12"/><rect class="c" x="818" y="18" rx="2" ry="2" width="12" height="12"/><rect class="c" x="818" y="34" rx="2" ry="2" width="12" height="12"/><rect class="c" x="818" y="50" rx="2" ry="2" width="12" height="12"/><rect class="c" x="818" y="66" rx="2" ry="2" width="12" height="12"/><rect class="c" x="818" y="82" rx="2" ry="2" width="12" height="12"/><rect class="c" x="818" y="98" rx="2" ry="2" width="12" height="12"/><rect class="c c15" x="834" y="2" rx="2" ry="2" width="12" height="12"/><rect class="c c16" x="834" y="18" rx="2" ry="2" width="12" height="12"/><rect class="u u0" height="12" width="158.4" x="0.0" y="144"/><rect class="u u1" height="12" width="434.5" x="157.8" y="144"/><rect class="u u2" height="12" width="99.2" x="591.6" y="144"/><rect class="u u3" height="12" width="158.4" x="690.2" y="144"/><rect class="s s0" x="0.8" y="0.8" width="14.4" height="14.4" rx="4.5" ry="4.5"/><rect class="s s1" x="1.8" y="1.8" width="12.3" height="12.3" rx="4.1" ry="4.1"/><rect class="s s2" x="2.6" y="2.6" width="10.8" height="10.8" rx="3.6" ry="3.6"/><rect class="s s3" x="3.0" y="3.0" width="9.9" height="9.9" rx="3.3" ry="3.3"/></svg>